<?xml version="1.0" encoding="utf-8" ?><svg xmlns="http://www.w3.org/2000/svg" xmlns:xlink="http://www.w3.org/1999/xlink" width="1076" height="1076" viewBox="0 0 1076 1076"><path fill="#143FEF" transform="matrix(1.05078 0 0 1.05078 0.00012207 0)" d="M664.158 136.97C673.277 136.071 687.165 136.015 696.449 135.844C718.127 135.54 739.808 135.417 761.488 135.474L830.504 135.003C834.753 135.01 852.08 134.388 854.78 135.706L855.043 136.796C855.805 178.691 854.996 222.388 855.003 264.48L855.028 305.139C855.032 311.411 855.374 322.98 854.505 328.679L855.245 571.563C855.321 619.431 855.794 669.233 855.035 717.015C855.184 726.84 855.196 736.667 855.071 746.492C854.858 757.264 855.026 768.681 855.017 779.499C800.338 780.692 745.643 781.028 690.953 780.505L655.507 780.51C648.054 780.507 638.733 780.838 631.449 779.55C629.522 779.209 623.824 774.627 622.196 773.102C603.379 755.469 585.093 737.09 566.558 719.167L427.367 583.337C401.259 557.529 373.543 528.397 346.636 503.702C338.001 496.648 329.718 487.686 321.513 479.914C320.353 469.594 321.167 456.208 320.93 445.7C320.841 441.713 321.329 435.082 320.602 431.378L321.063 430.177C320.557 414.633 320.976 396.759 321.009 381.039C325.439 381.821 329.888 384.604 332.94 387.858C334.298 389.795 344.595 396.113 347.177 397.707C359.381 405.24 372.171 417.486 384.288 424.523C390.367 427.857 404.282 441.199 407.828 440.484C415.304 432.325 422.971 431.188 432.109 425.83C438.186 422.266 435.559 420.515 438.064 416.611C445.547 422.778 453.06 428.599 460.726 434.528C466.473 438.972 472.124 444.074 477.94 448.397C487.163 456.654 497.151 463.754 506.678 471.59C515.241 478.763 523.919 485.796 532.71 492.687C535.811 495.131 543.321 501.974 546.894 502.046C550.73 503.336 655.783 587.603 664.398 595.037C665.263 576.678 664.503 552.759 664.494 533.75L664.607 401.992C664.23 380.822 664.541 358.91 664.534 337.675L664.495 216.04L664.484 164.925C664.481 157.688 664.838 143.76 664.158 136.97Z"/><defs><linearGradient id="gradient_0" gradientUnits="userSpaceOnUse" x1="614.26184" y1="300.90094" x2="875.21429" y2="188.63544"><stop offset="0" stop-color="#3AABFF"/><stop offset="1" stop-color="#55CDFC"/></linearGradient></defs><path fill="url(#gradient_0)" transform="matrix(1.05078 0 0 1.05078 0.00012207 0)" d="M664.158 136.97C673.277 136.071 687.165 136.015 696.449 135.844C718.127 135.54 739.808 135.417 761.488 135.474L830.504 135.003C834.753 135.01 852.08 134.388 854.78 135.706L855.043 136.796C848.906 146.874 842.765 155.575 836.328 165.358L811.504 203.472C807.179 209.986 795.788 225.668 792.636 232.275C789.714 235.557 781.042 248.488 779.56 252.454C751.522 295.669 722.881 338.49 693.646 380.905L676.335 406.697C673.383 411.152 668.445 419.391 664.918 422.94C664.897 416.498 665.072 408.268 664.607 401.992C664.23 380.822 664.541 358.91 664.534 337.675L664.495 216.04L664.484 164.925C664.481 157.688 664.838 143.76 664.158 136.97Z"/><defs><linearGradient id="gradient_1" gradientUnits="userSpaceOnUse" x1="413.90976" y1="432.45105" x2="800.68945" y2="674.41675"><stop offset="0" stop-color="#1445CD"/><stop offset="1" stop-color="#2C86FF"/></linearGradient></defs><path fill="url(#gradient_1)" transform="matrix(1.05078 0 0 1.05078 0.00012207 0)" d="M438.064 416.611C445.547 422.778 453.06 428.599 460.726 434.528C466.473 438.972 472.124 444.074 477.94 448.397C487.163 456.654 497.151 463.754 506.678 471.59C515.241 478.763 523.919 485.796 532.71 492.687C535.811 495.131 543.321 501.974 546.894 502.046C550.73 503.336 655.783 587.603 664.398 595.037C669.29 599.857 725.388 645.517 727.975 646.231C747.015 664.037 771.607 679.313 790.966 697.232C785.44 695.732 763.032 677.923 756.44 673.714L664.539 614.251C639.571 598.187 614.36 582.567 589.829 565.815L523.913 520.335C513.638 513.174 503.578 504.546 492.642 498.927C491.406 498.292 491.321 498.487 490.335 497.381C488.915 495.815 409.661 441.201 407.828 440.484C415.304 432.325 422.971 431.188 432.109 425.83C438.186 422.266 435.559 420.515 438.064 416.611Z"/><defs><linearGradient id="gradient_2" gradientUnits="userSpaceOnUse" x1="799.65302" y1="264.69116" x2="894.71552" y2="209.00154"><stop offset="0" stop-color="#2C81FF"/><stop offset="1" stop-color="#329EFF"/></linearGradient></defs><path fill="url(#gradient_2)" transform="matrix(1.05078 0 0 1.05078 0.00012207 0)" d="M792.636 232.275C795.788 225.668 807.179 209.986 811.504 203.472L836.328 165.358C842.765 155.575 848.906 146.874 855.043 136.796C855.805 178.691 854.996 222.388 855.003 264.48L855.028 305.139C855.032 311.411 855.374 322.98 854.505 328.679C847.399 324.369 845.744 315.295 840.256 309.611C834.299 303.443 826.069 300.283 819.582 294.597C817.195 293.793 818.19 288.296 816.346 287.61C802.954 282.63 806.822 269.185 804.915 258.126C804.044 253.076 799.746 251.485 795.32 249.688C797.558 243.819 802.644 234.308 793.615 232.081L792.636 232.275Z"/><path fill="#00117E" transform="matrix(1.05078 0 0 1.05078 0.00012207 0)" d="M321.009 381.039C325.439 381.821 329.888 384.604 332.94 387.858C334.298 389.795 344.595 396.113 347.177 397.707C359.381 405.24 372.171 417.486 384.288 424.523C390.367 427.857 404.282 441.199 407.828 440.484C409.661 441.201 488.915 495.815 490.335 497.381C485.46 495.421 476.568 488.136 471.784 485.098C449.944 471.229 428.551 454.866 406.88 440.928C403.845 442.876 399.353 446.163 396.446 447.71C393.303 449.383 388.456 448.634 384.874 451.863C372.401 463.105 367.662 477.636 358.458 490.827C355.868 494.539 347.565 500.525 346.61 502.523L346.636 503.702C338.001 496.648 329.718 487.686 321.513 479.914C320.353 469.594 321.167 456.208 320.93 445.7C320.841 441.713 321.329 435.082 320.602 431.378L321.063 430.177C320.557 414.633 320.976 396.759 321.009 381.039Z"/><path fill="#010155" transform="matrix(1.05078 0 0 1.05078 0.00012207 0)" d="M321.009 381.039C325.439 381.821 329.888 384.604 332.94 387.858C328.882 385.495 328.381 383.326 324.644 386.295C322.493 386.143 323.18 385.682 321.673 385.161C320.547 392.898 322.303 410.743 321.722 419.321C321.479 422.901 322.171 426.395 321.063 430.177C320.557 414.633 320.976 396.759 321.009 381.039Z"/><path fill="#081DB5" transform="matrix(1.05078 0 0 1.05078 0.00012207 0)" d="M821.457 719.61C826.933 700.073 843.692 717.454 852.244 720.538C853.525 720.02 854.158 718.419 855.035 717.015C855.184 726.84 855.196 736.667 855.071 746.492C852.091 744.622 846.12 739.453 843.206 737.074C836.04 731.149 828.789 725.328 821.457 719.61Z"/><path fill="#2A83FE" transform="matrix(1.05078 0 0 1.05078 0.00012207 0)" d="M792.636 232.275L793.615 232.081C792.788 234.474 792.186 235.328 790.686 237.38L790.694 238.251L792.357 238.842C793.242 241.172 791.739 242.554 792.833 244.785C794.228 244.724 794.408 244.557 795.742 244.062L796.049 244.754C795.207 246.878 794.495 248.294 793.451 250.338L792.564 250.469C787.679 251.169 787.195 250.507 782.376 250.262C781.913 250.239 780.041 251.996 779.56 252.454C781.042 248.488 789.714 235.557 792.636 232.275Z"/><path fill="#081DB5" transform="matrix(1.05078 0 0 1.05078 0.00012207 0)" d="M727.975 646.231C731.872 648.041 742.486 656.71 746.231 659.674C758.589 669.414 770.829 679.302 782.95 689.334C786.132 691.952 794.365 698.166 796.751 700.773L796.635 701.253C795.264 700.217 792.374 697.892 790.966 697.232C771.607 679.313 747.015 664.037 727.975 646.231Z"/><defs><linearGradient id="gradient_3" gradientUnits="userSpaceOnUse" x1="213.45633" y1="182.60472" x2="246.0948" y2="782.99048"><stop offset="0" stop-color="#B2B9E2"/><stop offset="1" stop-color="#E7E8F6"/></linearGradient></defs><path fill="url(#gradient_3)" transform="matrix(1.05078 0 0 1.05078 0.00012207 0)" d="M150.428 142.396C151.261 154.107 150.654 172.427 150.671 184.766C154.842 187.875 161.023 192.259 164.294 196.08C176.294 206.37 190.243 217.158 202.664 227.16L272.461 283.358C276.494 286.605 300.044 304.822 301.57 307.066C306.137 310.173 312.38 315.441 316.719 319.027C316.689 321.447 316.603 323.969 316.738 326.376C316.834 329.925 316.201 337.311 318.169 339.588L320.748 340.825C319.846 350.622 320.981 370.238 321.009 381.039C320.976 396.759 320.557 414.633 321.063 430.177L320.602 431.378C321.329 435.082 320.841 441.713 320.93 445.7C321.167 456.208 320.353 469.594 321.513 479.914C322.01 515.026 321.538 551.126 321.649 586.36L322.574 780.015L210.727 780.05C200.52 780.05 158.29 780.909 150.856 778.566C149.428 774.963 149.959 729.174 149.95 722.268L149.969 607.309L150 288.709C149.77 253.578 149.832 218.446 150.186 183.315C150.293 172.142 149.371 152.789 150.428 142.396Z"/><defs><linearGradient id="gradient_4" gradientUnits="userSpaceOnUse" x1="269.19791" y1="269.37198" x2="224.89047" y2="305.64182"><stop offset="0" stop-color="#4C60C0"/><stop offset="1" stop-color="#A5B0DF"/></linearGradient></defs><path fill="url(#gradient_4)" transform="matrix(1.05078 0 0 1.05078 0.00012207 0)" d="M164.294 196.08C176.294 206.37 190.243 217.158 202.664 227.16L272.461 283.358C276.494 286.605 300.044 304.822 301.57 307.066C306.137 310.173 312.38 315.441 316.719 319.027C316.689 321.447 316.603 323.969 316.738 326.376C316.834 329.925 316.201 337.311 318.169 339.588L320.748 340.825C319.846 350.622 320.981 370.238 321.009 381.039C320.976 396.759 320.557 414.633 321.063 430.177L320.602 431.378C319.362 426.585 320.382 395.35 320.428 388.374C301.663 385.603 270.44 357.55 256.646 344.093C252.352 339.903 247.14 330.043 242.521 325.003C236.073 317.966 228.627 311.163 222.447 303.858C215.778 293.669 207.07 282.964 200.774 272.851C188.345 252.885 178.795 231.041 167.089 210.593C165.645 208.07 161.676 199.445 162.565 196.829L164.294 196.08Z"/><path fill="#4A5EBF" transform="matrix(1.05078 0 0 1.05078 0.00012207 0)" d="M301.57 307.066C306.137 310.173 312.38 315.441 316.719 319.027C316.689 321.447 316.603 323.969 316.738 326.376C312.895 324.333 303.11 311.633 300.984 307.815L301.57 307.066Z"/><defs><linearGradient id="gradient_5" gradientUnits="userSpaceOnUse" x1="356.23087" y1="429.68094" x2="396.99911" y2="143.04239"><stop offset="0" stop-color="#D3D9F6"/><stop offset="1" stop-color="#FBFAFB"/></linearGradient></defs><path fill="url(#gradient_5)" transform="matrix(1.05078 0 0 1.05078 0.00012207 0)" d="M150.48 136.927C160.475 133.977 176.666 135.494 187.656 135.347C215.221 134.957 242.789 134.832 270.356 134.972L318.302 134.966C330.494 134.969 343.132 134.727 355.246 136.323C358.865 136.799 362.128 140.105 364.926 142.24C379.983 155.397 394.487 168.818 409.656 181.901C477.295 240.995 545.656 299.259 614.721 356.68L619.076 360.18C627.358 366.451 635.56 372.828 643.68 379.309C621.914 409.846 596.987 438.869 573.874 468.444C565.711 478.89 554.539 491.564 546.894 502.046C543.321 501.974 535.811 495.131 532.71 492.687C523.919 485.796 515.241 478.763 506.678 471.59C497.151 463.754 487.163 456.654 477.94 448.397C472.124 444.074 466.473 438.972 460.726 434.528C453.06 428.599 445.547 422.778 438.064 416.611C435.559 420.515 438.186 422.266 432.109 425.83C422.971 431.188 415.304 432.325 407.828 440.484C404.282 441.199 390.367 427.857 384.288 424.523C372.171 417.486 359.381 405.24 347.177 397.707C344.595 396.113 334.298 389.795 332.94 387.858C329.888 384.604 325.439 381.821 321.009 381.039C320.981 370.238 319.846 350.622 320.748 340.825L318.169 339.588C316.201 337.311 316.834 329.925 316.738 326.376C316.603 323.969 316.689 321.447 316.719 319.027C312.38 315.441 306.137 310.173 301.57 307.066C300.044 304.822 276.494 286.605 272.461 283.358L202.664 227.16C190.243 217.158 176.294 206.37 164.294 196.08C161.023 192.259 154.842 187.875 150.671 184.766C150.654 172.427 151.261 154.107 150.428 142.396L150.48 136.927Z"/><path fill="#929CE4" transform="matrix(1.05078 0 0 1.05078 0.00012207 0)" d="M614.721 356.68L619.076 360.18C627.358 366.451 635.56 372.828 643.68 379.309C621.914 409.846 596.987 438.869 573.874 468.444C565.711 478.89 554.539 491.564 546.894 502.046C543.321 501.974 535.811 495.131 532.71 492.687C523.919 485.796 515.241 478.763 506.678 471.59C497.151 463.754 487.163 456.654 477.94 448.397C483.06 445.844 487.108 440.074 491.103 438.223C530.608 419.913 565.861 398.351 601.501 373.31C606.306 368.616 606.983 365.128 611.631 360.729C613.483 358.976 614.043 359.232 614.721 356.68Z"/><path fill="#AEB5F1" transform="matrix(1.05078 0 0 1.05078 0.00012207 0)" d="M614.721 356.68L619.076 360.18C615.407 363.87 606.121 371.51 601.501 373.31C606.306 368.616 606.983 365.128 611.631 360.729C613.483 358.976 614.043 359.232 614.721 356.68Z"/><defs><linearGradient id="gradient_6" gradientUnits="userSpaceOnUse" x1="322.63556" y1="324.05341" x2="392.72351" y2="423.80127"><stop offset="0" stop-color="#000052"/><stop offset="1" stop-color="#0626A2"/></linearGradient></defs><path fill="url(#gradient_6)" transform="matrix(1.05078 0 0 1.05078 0.00012207 0)" d="M316.719 319.027L321.181 322.486C341.143 337.825 361.593 355.303 381.362 371.15C392.11 379.765 409.562 392.97 419.199 401.819C425.417 406.839 431.706 411.77 438.064 416.611C435.559 420.515 438.186 422.266 432.109 425.83C422.971 431.188 415.304 432.325 407.828 440.484C404.282 441.199 390.367 427.857 384.288 424.523C372.171 417.486 359.381 405.24 347.177 397.707C344.595 396.113 334.298 389.795 332.94 387.858C329.888 384.604 325.439 381.821 321.009 381.039C320.981 370.238 319.846 350.622 320.748 340.825L318.169 339.588C316.201 337.311 316.834 329.925 316.738 326.376C316.603 323.969 316.689 321.447 316.719 319.027Z"/><path fill="#081DB5" transform="matrix(1.05078 0 0 1.05078 0.00012207 0)" d="M419.199 401.819C425.417 406.839 431.706 411.77 438.064 416.611C435.559 420.515 438.186 422.266 432.109 425.83C422.971 431.188 415.304 432.325 407.828 440.484C404.282 441.199 390.367 427.857 384.288 424.523C386.424 422.335 391.654 419.099 394.487 417.707C405.692 412.204 414.559 415.168 419.199 401.819Z"/><path fill="#143FEF" transform="matrix(1.05078 0 0 1.05078 0.00012207 0)" d="M316.719 319.027L321.181 322.486C320.864 328.395 321.225 335.307 320.748 340.825L318.169 339.588C316.201 337.311 316.834 329.925 316.738 326.376C316.603 323.969 316.689 321.447 316.719 319.027Z"/></svg>