<?xml version="1.0" encoding="utf-8" ?><svg xmlns="http://www.w3.org/2000/svg" xmlns:xlink="http://www.w3.org/1999/xlink" width="1024" height="1024" viewBox="0 0 1024 1024"><defs><linearGradient id="gradient_0" gradientUnits="userSpaceOnUse" x1="207.91774" y1="456.77231" x2="228.2825" y2="378.35855"><stop offset="0" stop-color="#0039FF"/><stop offset="1" stop-color="#007DFF"/></linearGradient></defs><path fill="url(#gradient_0)" d="M148.33 371.076C161.134 371.18 178.985 370.791 191.531 371.549L200.116 371.448L213.847 371.363C217.253 373.546 232.724 388.534 236.317 392.236C242.756 398.871 254.492 409.091 260.294 415.762C268.414 421.976 284.77 439.769 292.936 447.655C295.466 450.142 298.132 452.862 300.711 455.264C293.785 464.483 286.373 472.103 278.146 480.115C276.527 481.691 271.706 487.044 269.962 487.859L268.824 487.12C267.506 487.279 266.798 486.564 265.701 485.809L265.232 485.482L264.439 485.779C265.06 486.301 267.696 488.442 268.126 488.939C266.354 491.028 267.349 492.374 265.099 494.124L262.877 494.622C255.967 491.518 249.157 488.193 242.459 484.653C231.997 487.764 236.953 498.702 235.29 506.889C234.291 511.808 232.752 515.249 230.22 519.496L225.693 514.929C223.225 512.443 220.815 510.201 218.24 507.826C213.653 504.197 207.189 497.161 203.154 492.889C202.851 510.86 203.724 531.761 202.888 549.284L203.119 579.5C185.102 579.507 166.43 579.775 148.468 579.483C148.131 573.052 148.327 566.058 148.385 559.57C148.277 539.944 148.292 520.316 148.43 500.69L148.094 432.24L148.034 392.099C148.03 386.806 147.699 375.798 148.33 371.076Z"/><defs><linearGradient id="gradient_1" gradientUnits="userSpaceOnUse" x1="191.27637" y1="427.64505" x2="108.05018" y2="520.98871"><stop offset="0" stop-color="#0028B9"/><stop offset="1" stop-color="#0039FF"/></linearGradient></defs><path fill="url(#gradient_1)" d="M148.385 559.57C148.277 539.944 148.292 520.316 148.43 500.69L148.094 432.24L148.034 392.099C148.03 386.806 147.699 375.798 148.33 371.076C148.966 377.241 148.364 383.834 148.663 390.098C152.527 393.606 177.103 412.427 178.036 414.153C180.986 416.392 202.996 433.294 204.067 435.049C203.044 438.623 203.806 455.926 203.43 461.671C203.461 465.146 203.89 485.219 203.193 486.896L203.154 492.889C202.851 510.86 203.724 531.761 202.888 549.284L203.119 579.5C185.102 579.507 166.43 579.775 148.468 579.483C148.131 573.052 148.327 566.058 148.385 559.57Z"/><defs><linearGradient id="gradient_2" gradientUnits="userSpaceOnUse" x1="174.95938" y1="579.74219" x2="178.25533" y2="518.82355"><stop offset="0" stop-color="#004AFF"/><stop offset="1" stop-color="#1197FF"/></linearGradient></defs><path fill="url(#gradient_2)" d="M203.052 482.274L203.193 486.896L203.154 492.889C202.851 510.86 203.724 531.761 202.888 549.284L203.119 579.5C185.102 579.507 166.43 579.775 148.468 579.483C148.131 573.052 148.327 566.058 148.385 559.57C151.137 557.966 157.302 547.791 160.195 544.304C161.92 541.575 163.086 539.8 165.071 537.258L166.067 537.54C169.66 532.751 175.163 525.699 177.917 520.621C183.508 512.44 194.272 500.145 198.521 492.163L197.004 492.364C199.5 488.741 200.533 486.817 202.197 482.819L203.052 482.274Z"/><path fill="#429CF9" d="M203.052 482.274L203.193 486.896L203.154 492.889C202.851 510.86 203.724 531.761 202.888 549.284L202.234 553.961C201.69 542.656 201.571 532.328 201.535 521.033C200.797 520.253 201.035 520.508 199.989 520.026C194.911 521.317 191.249 521.591 185.989 521.083C182.645 520.76 181.351 519.821 177.917 520.621C183.508 512.44 194.272 500.145 198.521 492.163L197.004 492.364C199.5 488.741 200.533 486.817 202.197 482.819L203.052 482.274Z"/><path fill="#FEFEFE" d="M203.052 482.274L203.193 486.896L203.154 492.889C202.851 510.86 203.724 531.761 202.888 549.284L202.234 553.961C201.69 542.656 201.571 532.328 201.535 521.033C201.771 513.467 201.543 496.682 200.787 489.654C199.805 489.939 199.294 491.102 198.521 492.163L197.004 492.364C199.5 488.741 200.533 486.817 202.197 482.819L203.052 482.274Z"/><path fill="#73B6FD" d="M160.195 544.304C161.92 541.575 163.086 539.8 165.071 537.258L166.067 537.54C164.871 539.465 162.396 543.9 160.195 544.304Z"/><path fill="#0025B3" d="M203.43 461.671C202.878 460.351 202.829 460.167 202.845 459.146C202.888 456.317 195.096 452.791 191.983 449.668C184.156 441.894 177.595 431.729 173.071 421.689C172.285 419.944 167.417 409.061 167.566 408.265C170.767 406.77 173.926 413.911 178.036 414.153C180.986 416.392 202.996 433.294 204.067 435.049C203.044 438.623 203.806 455.926 203.43 461.671Z"/><path fill="#A4DAFC" d="M165.071 537.258C174.385 524.323 187.112 504.013 197.004 492.364L198.521 492.163C194.272 500.145 183.508 512.44 177.917 520.621C175.163 525.699 169.66 532.751 166.067 537.54L165.071 537.258Z"/><path fill="#0230D9" d="M202.629 467.209C202.946 472.225 203.087 477.249 203.052 482.274L202.197 482.819C201.629 476.741 201.874 473.283 202.629 467.209Z"/><defs><linearGradient id="gradient_3" gradientUnits="userSpaceOnUse" x1="190.89717" y1="456.77597" x2="257.82025" y2="501.67361"><stop offset="0" stop-color="#001073"/><stop offset="1" stop-color="#013ABF"/></linearGradient></defs><path fill="url(#gradient_3)" d="M204.067 435.049C207.94 438.055 213.444 442.63 217.298 445.321C220.926 449.003 228.635 454.464 232.901 458.099C239.858 464.028 247.064 469.94 254.221 475.631C258.76 479.239 265.136 482.964 268.824 487.12C267.506 487.279 266.798 486.564 265.701 485.809L265.232 485.482L264.439 485.779C265.06 486.301 267.696 488.442 268.126 488.939C266.354 491.028 267.349 492.374 265.099 494.124L262.877 494.622C255.967 491.518 249.157 488.193 242.459 484.653C231.997 487.764 236.953 498.702 235.29 506.889C234.291 511.808 232.752 515.249 230.22 519.496L225.693 514.929C223.225 512.443 220.815 510.201 218.24 507.826C213.653 504.197 207.189 497.161 203.154 492.889L203.193 486.896C203.89 485.219 203.461 465.146 203.43 461.671C203.806 455.926 203.044 438.623 204.067 435.049Z"/><path fill="#0579E2" d="M218.24 507.826C221.209 497.415 221.474 481.057 225.549 473.085C228.574 477.636 234.016 477.934 238.19 482.228C238.967 482.663 241.907 484.232 242.459 484.653C231.997 487.764 236.953 498.702 235.29 506.889C234.291 511.808 232.752 515.249 230.22 519.496L225.693 514.929C223.225 512.443 220.815 510.201 218.24 507.826Z"/><path fill="#429CF9" d="M225.693 514.929C231.159 507.769 232.717 497.526 233.259 488.744C233.389 486.648 231.825 482.632 232.969 481.037C234.757 480.864 236.453 481.636 238.19 482.228C238.967 482.663 241.907 484.232 242.459 484.653C231.997 487.764 236.953 498.702 235.29 506.889C234.291 511.808 232.752 515.249 230.22 519.496L225.693 514.929Z"/><defs><linearGradient id="gradient_4" gradientUnits="userSpaceOnUse" x1="243.41777" y1="466.73624" x2="250.00912" y2="497.23935"><stop offset="0" stop-color="#0038AC"/><stop offset="1" stop-color="#1FA8FF"/></linearGradient></defs><path fill="url(#gradient_4)" d="M225.549 473.085L225.045 472.478C223.93 471.156 221.537 469.198 221.331 467.906C225.842 468.135 223.228 470.14 228.445 470.825C231.415 471.215 243.539 469.423 243.246 469.3C248.861 471.666 259.334 482.013 264.439 485.779C265.06 486.301 267.696 488.442 268.126 488.939C266.354 491.028 267.349 492.374 265.099 494.124L262.877 494.622C255.967 491.518 249.157 488.193 242.459 484.653C241.907 484.232 238.967 482.663 238.19 482.228C234.016 477.934 228.574 477.636 225.549 473.085Z"/><path fill="#0230D9" d="M217.298 445.321L216.693 443.442L216.78 444.384L217.395 443.357L220.286 446.049C223.52 449.097 230.387 452.999 234.254 455.612C241.874 460.761 250.754 471.254 260.515 470.72C270.076 470.198 280.642 461.812 286.822 454.898C288.659 452.843 291.21 449.191 292.936 447.655C295.466 450.142 298.132 452.862 300.711 455.264C293.785 464.483 286.373 472.103 278.146 480.115C276.527 481.691 271.706 487.044 269.962 487.859L268.824 487.12C265.136 482.964 258.76 479.239 254.221 475.631C247.064 469.94 239.858 464.028 232.901 458.099C228.635 454.464 220.926 449.003 217.298 445.321Z"/><path fill="#73B6FD" d="M200.116 371.448L213.847 371.363C217.253 373.546 232.724 388.534 236.317 392.236C242.756 398.871 254.492 409.091 260.294 415.762L259.817 416.152C254.299 412.324 247.453 405.165 242.389 400.38C232.85 391.416 223.26 382.506 213.619 373.651C209.225 373.058 204.879 373.07 200.45 372.986L200.724 372.231L200.116 371.448Z"/><path fill="#429CF9" d="M191.531 371.549L200.116 371.448L200.724 372.231L200.45 372.986C196.882 373.031 194.958 372.833 191.481 372.211L191.531 371.549Z"/><defs><linearGradient id="gradient_5" gradientUnits="userSpaceOnUse" x1="324.22165" y1="540.32147" x2="359.2171" y2="484.74759"><stop offset="0" stop-color="#41AAFE"/><stop offset="1" stop-color="#8FD2FD"/></linearGradient></defs><path fill="url(#gradient_5)" d="M310.003 371.692C326.932 372.742 348.477 371.683 366.009 371.88L366.203 428.109C366.199 435.969 366.569 448.145 366.03 455.68C366.265 459.108 366.442 481.398 366.076 484.318C367.268 510.496 366.528 542.641 366.533 569.132L366.582 580.807C341.763 581.361 315.819 580.918 290.951 580.702C279.814 570.035 269.28 558.583 258.281 547.761C255.621 545.143 251.599 541.382 249.411 538.51C244.376 534.349 235.157 524.507 230.22 519.496C232.752 515.249 234.291 511.808 235.29 506.889C236.953 498.702 231.997 487.764 242.459 484.653C249.157 488.193 255.967 491.518 262.877 494.622L265.099 494.124C267.349 492.374 266.354 491.028 268.126 488.939C267.696 488.442 265.06 486.301 264.439 485.779L265.232 485.482L265.701 485.809C266.798 486.564 267.506 487.279 268.824 487.12L269.962 487.859C271.706 487.044 276.527 481.691 278.146 480.115C286.373 472.103 293.785 464.483 300.711 455.264C306.468 460.946 305.71 460.106 309.188 467.276C309.511 463.33 309.361 459.592 309.577 455.746C309.036 443.972 309.868 429.06 309.647 416.926C309.506 409.113 309.254 392.004 309.936 384.89C309.654 380.494 309.676 376.085 310.003 371.692Z"/><defs><linearGradient id="gradient_6" gradientUnits="userSpaceOnUse" x1="277.53949" y1="492.80777" x2="323.84686" y2="596.82153"><stop offset="0" stop-color="#9CD3FC"/><stop offset="1" stop-color="#D9F5FC"/></linearGradient></defs><path fill="url(#gradient_6)" d="M300.711 455.264C306.468 460.946 305.71 460.106 309.188 467.276C309.511 463.33 309.361 459.592 309.577 455.746C309.916 461.032 310.002 466.317 310.127 471.612C310.011 481.394 309.976 491.177 310.021 500.96C310.105 507.731 310.572 516.657 309.925 523.259C320.996 531.855 331.985 540.557 342.889 549.364C350.366 555.355 359.704 562.591 366.533 569.132L366.582 580.807C341.763 581.361 315.819 580.918 290.951 580.702C279.814 570.035 269.28 558.583 258.281 547.761C255.621 545.143 251.599 541.382 249.411 538.51C244.376 534.349 235.157 524.507 230.22 519.496C232.752 515.249 234.291 511.808 235.29 506.889C236.953 498.702 231.997 487.764 242.459 484.653C249.157 488.193 255.967 491.518 262.877 494.622L265.099 494.124C267.349 492.374 266.354 491.028 268.126 488.939C267.696 488.442 265.06 486.301 264.439 485.779L265.232 485.482L265.701 485.809C266.798 486.564 267.506 487.279 268.824 487.12L269.962 487.859C271.706 487.044 276.527 481.691 278.146 480.115C286.373 472.103 293.785 464.483 300.711 455.264Z"/><path fill="#0025B3" d="M300.711 455.264C306.468 460.946 305.71 460.106 309.188 467.276C309.511 463.33 309.361 459.592 309.577 455.746C309.916 461.032 310.002 466.317 310.127 471.612C310.011 481.394 309.976 491.177 310.021 500.96C310.105 507.731 310.572 516.657 309.925 523.259C299.651 514.924 289.843 506.552 279.237 498.632C277.898 496.81 270.337 490.738 268.126 488.939C267.696 488.442 265.06 486.301 264.439 485.779L265.232 485.482L265.701 485.809C266.798 486.564 267.506 487.279 268.824 487.12L269.962 487.859C271.706 487.044 276.527 481.691 278.146 480.115C286.373 472.103 293.785 464.483 300.711 455.264Z"/><defs><linearGradient id="gradient_7" gradientUnits="userSpaceOnUse" x1="232.3968" y1="492.83032" x2="253.21475" y2="512.66937"><stop offset="0" stop-color="#4A9EF4"/><stop offset="1" stop-color="#84C7FE"/></linearGradient></defs><path fill="url(#gradient_7)" d="M230.22 519.496C232.752 515.249 234.291 511.808 235.29 506.889C236.953 498.702 231.997 487.764 242.459 484.653C249.157 488.193 255.967 491.518 262.877 494.622L265.099 494.124C267.349 492.374 266.354 491.028 268.126 488.939C270.337 490.738 277.898 496.81 279.237 498.632C279.537 500.118 279.643 500.421 280.488 501.678C277.701 503.183 269.974 499.096 267.171 497.827C260.769 504.651 256.351 510.751 248.569 516.835C231.996 529.792 246.557 529.768 249.411 538.51C244.376 534.349 235.157 524.507 230.22 519.496Z"/><path fill="#73B6FD" d="M262.877 494.622L265.099 494.124C267.349 492.374 266.354 491.028 268.126 488.939C270.337 490.738 277.898 496.81 279.237 498.632C278.569 499.469 278.591 499.845 278.262 500.872C275.38 501.118 265.859 496.205 262.877 494.622Z"/><defs><linearGradient id="gradient_8" gradientUnits="userSpaceOnUse" x1="368.55594" y1="441.64169" x2="303.20651" y2="381.41367"><stop offset="0" stop-color="#AEE0FC"/><stop offset="1" stop-color="white"/></linearGradient></defs><path fill="url(#gradient_8)" d="M310.003 371.692C326.932 372.742 348.477 371.683 366.009 371.88L366.203 428.109C366.199 435.969 366.569 448.145 366.03 455.68C364.923 452.388 366.311 446.265 363.534 442.972C362.467 442.228 356.91 442.752 355.516 442.88C345.156 443.83 332.394 439.058 322.703 439.118C323.644 438.154 324.043 437.289 324.7 436.126L324.293 436.275C320.881 440.682 312.755 450.332 311.82 455.307C312.454 459.974 311.075 467.46 311.596 473.578C311.614 477.753 311.682 480.113 311.012 484.195C310.217 482.85 311.182 474.289 310.127 471.612C310.002 466.317 309.916 461.032 309.577 455.746C309.036 443.972 309.868 429.06 309.647 416.926C309.506 409.113 309.254 392.004 309.936 384.89C309.654 380.494 309.676 376.085 310.003 371.692Z"/><path fill="#C5E1FB" d="M309.936 384.89C310.497 390.566 310.247 398.911 310.228 404.814L310.13 436.804C310.12 441.183 309.807 451.166 310.834 454.891L311.82 455.307C312.454 459.974 311.075 467.46 311.596 473.578C311.614 477.753 311.682 480.113 311.012 484.195C310.217 482.85 311.182 474.289 310.127 471.612C310.002 466.317 309.916 461.032 309.577 455.746C309.036 443.972 309.868 429.06 309.647 416.926C309.506 409.113 309.254 392.004 309.936 384.89Z"/><path fill="#A4DAFC" d="M311.82 455.307C312.755 450.332 320.881 440.682 324.293 436.275L324.7 436.126C324.043 437.289 323.644 438.154 322.703 439.118C332.394 439.058 345.156 443.83 355.516 442.88C356.91 442.752 362.467 442.228 363.534 442.972C366.311 446.265 364.923 452.388 366.03 455.68C366.265 459.108 366.442 481.398 366.076 484.318C365.455 487.113 365.305 490.38 364.916 493.335C364.612 487.189 364.097 480.977 363.777 474.779L363.494 475.004C363.545 479.355 363.655 483.778 363.482 488.12L362.833 488.043C362.632 487.801 361.332 486.261 361.235 486.235C343.998 481.721 330.863 468.015 312.339 468.256L311.596 473.578C311.075 467.46 312.454 459.974 311.82 455.307Z"/><path fill="#FEFEFE" d="M766.741 439.714C773.954 438.773 781.806 439.882 788.521 442.992C814.45 455 813.393 492.98 786.172 502.392C783.292 503.388 780.221 503.797 777.328 504.798L776.931 504.939C719.579 506.821 725.214 441.797 766.741 439.714ZM772.466 493.779C780.244 493.226 787.121 488.524 790.457 481.476C793.794 474.428 793.072 466.129 788.569 459.762C784.066 453.396 776.481 449.951 768.724 450.75C756.991 451.957 748.397 462.355 749.418 474.106C750.44 485.857 760.7 494.614 772.466 493.779Z"/><path fill="#FEFEFE" d="M632.871 440.526C637.583 440.465 642.295 440.445 647.008 440.468C647.547 461.001 646.887 482.958 647.156 503.74L632.774 504.018L632.655 481.625L632.564 463.213C627.188 471.715 619.511 481.029 613.421 490.489L606.36 490.356C600.36 484.395 591.703 470.521 585.51 462.932C585.786 476.286 585.529 490.577 585.513 503.982L571.789 504.008C572.841 484.374 570.501 459.712 571.99 440.507C575.812 440.959 581.219 440.834 585.179 440.857C587.332 442.96 592.251 449.864 594.306 452.612C599.165 459.206 604.172 465.69 609.324 472.057C618.258 461.656 624.569 450.935 632.871 440.526Z"/><path fill="#FEFEFE" d="M424.287 440.172C427.289 440.384 435.227 439.78 436.955 441.962C447.675 455.491 459.576 468.371 470.529 481.618C470.681 468.059 470.57 454.334 470.558 440.76C475.362 440.842 480.166 440.791 484.967 440.607C485.385 461.558 484.919 482.769 485.223 503.789C483.187 504.235 474.467 504.024 471.888 504.011C464.066 496.241 455.478 484.238 448.039 475.715C444.598 471.773 442.09 467.997 438.134 464.227L438.019 504.062L423.454 504.097L423.403 460.262C423.39 454.416 422.976 446.151 423.26 440.646L424.287 440.172Z"/><path fill="#FEFEFE" d="M504.189 440.584C521.156 440.907 538.127 440.896 555.094 440.552C555.241 444.383 555.353 448.216 555.427 452.049C543.453 452.239 531.01 452.073 518.998 452.078C518.856 456.856 518.919 461.389 518.989 466.159C528.693 465.787 540.976 466.111 551.041 465.969L551.061 477.672C543.384 477.896 534.898 477.67 527.125 477.663C524.169 477.757 521.81 477.75 518.854 477.641L519.047 492.187C530.961 491.985 543.435 492.181 555.391 492.2C555.083 495.917 555.158 500.172 555.139 503.948C538.655 504.325 520.922 504.013 504.336 504.034C503.456 484.887 503.995 459.945 504.189 440.584Z"/><path fill="#FEFEFE" d="M714.797 440.436C719.736 440.554 724.984 440.509 729.945 440.542C728.06 444.896 726.252 448.571 724.126 452.788C722.246 455.632 717.623 466.069 715.991 469.638C710.854 480.881 705.787 492.157 700.79 503.464L686.552 503.524C683.987 498.8 658.088 442.55 658.042 440.652C662.458 440.84 668.184 440.622 672.694 440.579C675.921 445.902 679.34 455.001 682.014 460.972C685.876 469.597 689.906 478.349 693.449 487.081C698.105 475.962 704.015 465.215 708.689 454.081C710.635 449.446 712.568 444.944 714.797 440.436Z"/><path fill="#FEFEFE" d="M822.396 440.401L836.684 440.459C836.212 457.274 836.621 475.392 836.638 492.314C845.751 491.662 861.036 492.057 870.777 492C870.879 495.93 870.904 499.862 870.852 503.793C868.24 504.236 857.687 504.035 854.317 504.026L822.479 503.998C821.902 483.86 822.429 460.832 822.396 440.401Z"/></svg>