<?xml version="1.0" encoding="utf-8" ?><svg xmlns="http://www.w3.org/2000/svg" xmlns:xlink="http://www.w3.org/1999/xlink" width="1024" height="1024" viewBox="0 0 1024 1024"><defs><linearGradient id="gradient_0" gradientUnits="userSpaceOnUse" x1="524.94519" y1="604.75281" x2="452.08893" y2="490.06992"><stop offset="0" stop-color="#002A76"/><stop offset="1" stop-color="#0047AB"/></linearGradient></defs><path fill="url(#gradient_0)" d="M815.26 345.603C817.507 342.02 821.144 334.776 825.406 333.982C824.276 336.77 820.36 345.543 818.771 348.098C807.378 374.387 780.091 408.237 760.879 429.587C753.677 437.59 744.521 445.833 737.98 454.181C736.427 456.163 734.804 464.455 733.698 467.577C732.647 473.439 731.008 479.233 729.446 484.985L716.881 532.773C715.333 538.593 712.461 550.809 710.526 556.103C707.17 571.356 701.879 589.317 697.822 604.629L672.452 699.91C669.982 709.354 667.378 718.763 664.638 728.132C663.046 733.727 660.422 742.243 659.573 747.857C645.911 731.334 630.841 715.237 617.165 698.59C612.492 692.903 607.452 687.852 602.843 681.953C597.782 677.085 589.507 666.592 584.484 660.986C567.601 642.148 551.399 621.162 533.896 603.055C526.957 607.305 505.623 620.254 498.567 623.317C494.674 626.355 489.604 628.706 485.286 631.113C472.57 638.198 459.603 644.73 446.641 651.346C385.129 682.743 290.366 730.558 219.878 721.864C203.333 719.823 185.195 714.567 174.526 700.816C167.18 691.348 165.843 681.122 165.999 669.493C166.101 634.454 199.031 589.999 221.309 564.438C231.241 552.039 242.515 540.928 252.913 529.11C251.38 534.185 243.857 543.244 240.871 548.199C227.734 570 206.297 599.714 215.855 626.311C219.594 636.47 230.036 640.131 239.647 641.791C311.088 648.508 447.252 566.46 510.515 530.144C508.592 534.076 508.159 534.3 504.693 536.936C504.799 539.138 505.102 542.356 505.108 544.394L506.034 543.331C510.533 545.445 508.461 548.927 511.531 552.107C515.306 553.801 517.835 550.953 521.462 550.24C523.252 549.662 536.899 540.757 539.634 539.068C564.991 523.407 589.233 505.396 613.978 489.065L623.025 482.962C632.333 476.171 642.071 469.904 651.345 463.107C669.542 449.773 687.96 436.578 705.989 423.026L754.497 386.091C760.324 381.599 780.847 364.949 786.489 362.632C785.575 364.24 784.893 365.512 783.795 366.995L785.141 367.445C757.968 398.109 725.529 433.447 695.34 461.004C694.267 463.442 693.256 464.835 691.793 467.016C694.2 473.23 694.334 477.969 701.455 474.119C708.666 468.625 717.95 458.987 724.743 452.514C759.332 419.553 787.494 384.217 815.26 345.603Z"/><defs><linearGradient id="gradient_1" gradientUnits="userSpaceOnUse" x1="616.49286" y1="571.75592" x2="710.88135" y2="607.32526"><stop offset="0" stop-color="#027"/><stop offset="1" stop-color="#0098E7"/></linearGradient></defs><path fill="url(#gradient_1)" d="M675.876 505.645C681.44 500.376 698.777 488.375 705.486 483.206C711.921 478.197 718.208 473.003 724.341 467.63C727.131 465.189 732.035 459.298 735.422 459.271C735.018 460.869 734.029 464.422 732.987 465.453C727.421 471.049 721.953 476.678 717.221 483.034C714.71 486.408 710.421 489.376 708.302 492.498C707.035 495.809 703.703 503.066 703.415 506.392C708.75 501.876 713.596 496.816 718.675 492.032C721.671 489.21 725.243 485.034 729.446 484.985L716.881 532.773C715.333 538.593 712.461 550.809 710.526 556.103C707.17 571.356 701.879 589.317 697.822 604.629L672.452 699.91C669.982 709.354 667.378 718.763 664.638 728.132C663.046 733.727 660.422 742.243 659.573 747.857C645.911 731.334 630.841 715.237 617.165 698.59C612.492 692.903 607.452 687.852 602.843 681.953C597.782 677.085 589.507 666.592 584.484 660.986C567.601 642.148 551.399 621.162 533.896 603.055C538.172 599.887 546.996 594.804 551.898 591.714C562.855 584.745 573.754 577.684 584.592 570.532C613.769 551.21 647.779 526.755 675.876 505.645Z"/><defs><linearGradient id="gradient_2" gradientUnits="userSpaceOnUse" x1="569.25366" y1="546.40125" x2="630.50708" y2="583.25635"><stop offset="0" stop-color="#001156"/><stop offset="1" stop-color="#003B8C"/></linearGradient></defs><path fill="url(#gradient_2)" d="M675.876 505.645C675.514 510.235 604.657 624.63 597.935 636.444C595.665 640.433 588.183 650.989 585.49 655.582C584.194 657.791 584.435 659.576 585.864 661.316C589.337 665.546 600.907 677.157 603.169 681.167L602.843 681.953C597.782 677.085 589.507 666.592 584.484 660.986C567.601 642.148 551.399 621.162 533.896 603.055C538.172 599.887 546.996 594.804 551.898 591.714C562.855 584.745 573.754 577.684 584.592 570.532C613.769 551.21 647.779 526.755 675.876 505.645Z"/><path fill="#00A5DE" d="M703.415 506.392C708.75 501.876 713.596 496.816 718.675 492.032C721.671 489.21 725.243 485.034 729.446 484.985L716.881 532.773C715.333 538.593 712.461 550.809 710.526 556.103C708.743 551.734 726.013 501.785 724.107 498.394C721.875 500.511 719.789 504.107 717.823 506.557C714.398 510.827 711.019 515.511 708.131 520.149C703.924 526.904 700.24 532.674 695.456 538.899C691.472 544.082 675.615 613.992 674.731 614.785C675.138 610.093 679.172 593.814 680.649 589.167C682.337 581.67 684.535 574.326 686.186 566.665C687.787 562.929 689.595 554.196 690.765 549.971C694.528 536.375 697.902 519.193 703.415 506.392Z"/><path fill="#007BD2" d="M686.186 566.665C684.535 574.326 682.337 581.67 680.649 589.167C680.109 587.951 679.816 587.629 678.843 586.781C679.495 581.213 682.847 570.973 686.186 566.665Z"/><defs><linearGradient id="gradient_3" gradientUnits="userSpaceOnUse" x1="191.45833" y1="700.62384" x2="467.32465" y2="480.41714"><stop offset="0" stop-color="#005EEA"/><stop offset="1" stop-color="#00CBF9"/></linearGradient></defs><path fill="url(#gradient_3)" d="M239.647 641.791C311.088 648.508 447.252 566.46 510.515 530.144C508.592 534.076 508.159 534.3 504.693 536.936C504.799 539.138 505.102 542.356 505.108 544.394L506.034 543.331C510.533 545.445 508.461 548.927 511.531 552.107C515.306 553.801 517.835 550.953 521.462 550.24C517.593 553.208 511.372 556.75 507.044 559.374C498.821 564.374 490.565 569.318 482.276 574.206C448.89 593.808 414.937 612.426 380.46 630.038C369.282 635.683 357.738 640.869 346.466 646.305C341.898 648.508 334.892 651.358 330.653 653.701C294.513 669.579 222.738 699.388 182.4 685.435C172.568 682.034 170.801 672.7 165.999 669.493C166.101 634.454 199.031 589.999 221.309 564.438C231.241 552.039 242.515 540.928 252.913 529.11C251.38 534.185 243.857 543.244 240.871 548.199C227.734 570 206.297 599.714 215.855 626.311C219.594 636.47 230.036 640.131 239.647 641.791Z"/><defs><linearGradient id="gradient_4" gradientUnits="userSpaceOnUse" x1="212.00372" y1="586.31836" x2="256.81146" y2="601.12488"><stop offset="0" stop-color="#003DBD"/><stop offset="1" stop-color="#0055E0"/></linearGradient></defs><path fill="url(#gradient_4)" d="M252.913 529.11C251.38 534.185 243.857 543.244 240.871 548.199C227.734 570 206.297 599.714 215.855 626.311C219.594 636.47 230.036 640.131 239.647 641.791C240.931 646.646 241.013 648.172 240.954 653.003C232.485 652.956 224.377 652.329 216.856 648.087C210.223 644.347 205.848 638.54 203.995 631.172C197.389 604.916 223.462 572.252 221.309 564.438C231.241 552.039 242.515 540.928 252.913 529.11Z"/><defs><linearGradient id="gradient_5" gradientUnits="userSpaceOnUse" x1="503.77759" y1="619.82959" x2="481.61612" y2="514.66595"><stop offset="0" stop-color="#004AA6"/><stop offset="1" stop-color="#0086D9"/></linearGradient></defs><path fill="url(#gradient_5)" d="M629.023 484.015C641.03 480.038 642.517 480.055 654.987 481.867C587.378 535.944 514.999 583.77 438.74 624.755C436.155 626.139 418.469 635.728 417.745 635.652L417.618 634.224C412.96 630.844 388.278 637.893 381.154 638.812L375.642 636.359C371.715 639.266 368.007 642.108 364.267 645.294C355.49 652.772 343.468 656.17 332.071 654.21C331.482 654.109 331.161 653.933 330.653 653.701C334.892 651.358 341.898 648.508 346.466 646.305C357.738 640.869 369.282 635.683 380.46 630.038C414.937 612.426 448.89 593.808 482.276 574.206C490.565 569.318 498.821 564.374 507.044 559.374C511.372 556.75 517.593 553.208 521.462 550.24C523.252 549.662 536.899 540.757 539.634 539.068C564.991 523.407 589.233 505.396 613.978 489.065L623.025 482.962C625.536 484.084 625.87 483.932 628.699 484.004L629.023 484.015Z"/><path fill="#007BD2" d="M613.978 489.065L623.025 482.962C625.536 484.084 625.87 483.932 628.699 484.004L629.023 484.015C623.511 484.957 618.999 490.553 613.978 489.065Z"/><defs><linearGradient id="gradient_6" gradientUnits="userSpaceOnUse" x1="677.51306" y1="503.00876" x2="650.86407" y2="467.62305"><stop offset="0" stop-color="#005EB3"/><stop offset="1" stop-color="#0093D7"/></linearGradient></defs><path fill="url(#gradient_6)" d="M815.26 345.603C817.507 342.02 821.144 334.776 825.406 333.982C824.276 336.77 820.36 345.543 818.771 348.098C807.378 374.387 780.091 408.237 760.879 429.587C753.677 437.59 744.521 445.833 737.98 454.181C736.427 456.163 734.804 464.455 733.698 467.577C732.647 473.439 731.008 479.233 729.446 484.985C725.243 485.034 721.671 489.21 718.675 492.032C713.596 496.816 708.75 501.876 703.415 506.392C703.703 503.066 707.035 495.809 708.302 492.498C710.421 489.376 714.71 486.408 717.221 483.034C721.953 476.678 727.421 471.049 732.987 465.453C734.029 464.422 735.018 460.869 735.422 459.271C732.035 459.298 727.131 465.189 724.341 467.63C718.208 473.003 711.921 478.197 705.486 483.206C698.777 488.375 681.44 500.376 675.876 505.645C647.779 526.755 613.769 551.21 584.592 570.532C573.754 577.684 562.855 584.745 551.898 591.714C546.996 594.804 538.172 599.887 533.896 603.055C526.957 607.305 505.623 620.254 498.567 623.317C500.742 618.252 503.175 615.418 504.514 609.331L502.705 609.306C503.324 607.954 513.161 601.776 514.932 600.708C561.797 572.429 602.555 536.791 646.067 503.937C659.559 493.573 671.938 481.608 684.596 470.254C687.853 467.332 691.726 463.377 695.34 461.004C694.267 463.442 693.256 464.835 691.793 467.016C694.2 473.23 694.334 477.969 701.455 474.119C708.666 468.625 717.95 458.987 724.743 452.514C759.332 419.553 787.494 384.217 815.26 345.603Z"/><path fill="#00A5DE" d="M646.067 503.937C659.559 493.573 671.938 481.608 684.596 470.254C687.853 467.332 691.726 463.377 695.34 461.004C694.267 463.442 693.256 464.835 691.793 467.016C694.2 473.23 694.334 477.969 701.455 474.119C699.813 476.745 660.673 512.892 655.773 516.197C656.856 514.315 656.891 514.91 656.679 513.137C654.084 510.557 649.29 506.938 646.067 503.937Z"/><path fill="#007BD2" d="M708.302 492.498C718.866 486.198 725.557 469.822 733.698 467.577C732.647 473.439 731.008 479.233 729.446 484.985C725.243 485.034 721.671 489.21 718.675 492.032C713.596 496.816 708.75 501.876 703.415 506.392C703.703 503.066 707.035 495.809 708.302 492.498Z"/><path fill="#00A5DE" d="M815.26 345.603C817.507 342.02 821.144 334.776 825.406 333.982C824.276 336.77 820.36 345.543 818.771 348.098C817.677 346.296 820.3 344.842 819.715 341.353C817.707 342.851 818.092 344.093 815.26 345.603Z"/><defs><linearGradient id="gradient_7" gradientUnits="userSpaceOnUse" x1="713.92712" y1="467.29266" x2="695.51428" y2="384.44321"><stop offset="0" stop-color="#009ACF"/><stop offset="1" stop-color="#00BFE6"/></linearGradient></defs><path fill="url(#gradient_7)" d="M623.025 482.962C632.333 476.171 642.071 469.904 651.345 463.107C669.542 449.773 687.96 436.578 705.989 423.026L754.497 386.091C760.324 381.599 780.847 364.949 786.489 362.632C785.575 364.24 784.893 365.512 783.795 366.995C752.821 398.493 720.262 428.392 686.244 456.576C676.261 464.873 665.328 474.046 654.987 481.867C642.517 480.055 641.03 480.038 629.023 484.015L628.699 484.004C625.87 483.932 625.536 484.084 623.025 482.962Z"/><defs><linearGradient id="gradient_8" gradientUnits="userSpaceOnUse" x1="463.48929" y1="420.8237" x2="234.30643" y2="455.64709"><stop offset="0" stop-color="#007FD8"/><stop offset="1" stop-color="#00D1FF" stop-opacity="0.98823529"/></linearGradient></defs><path fill="url(#gradient_8)" d="M255.382 609.993C257.166 598.427 262.189 581.11 265.21 569.31L284.017 495.766L313.071 381.996C317.845 363.06 322.176 343.988 327.121 325.108C333.761 299.759 350.675 285.872 375.585 280.527C375.973 281.008 376.36 281.489 376.747 281.969C383.833 284.863 394.726 286.046 400.74 291.06C417.338 304.9 430.653 322.471 444.979 338.547C447.763 341.673 450.84 345.005 453.436 348.23C451.794 349.817 450.693 351.579 450.744 353.944C450.839 358.332 451.7 362.937 452.247 367.302C453.794 379.656 455.906 391.876 457.741 404.181C461.435 428.956 464.328 453.947 468.463 478.643C469.286 483.561 472.861 505.468 474.845 508.552L473.8 511.31C472.073 511.928 467.692 508.29 464.553 507.083C461.765 505.244 434.436 468.609 429.295 462.799C425.298 456.606 419.735 449.802 415.113 443.822C407.488 433.957 391.044 407.677 376.341 421.34C364.195 432.627 353.125 449.829 343.814 463.68C321.203 497.013 299.922 531.228 280.021 566.247C275.142 575.076 270.328 583.941 265.579 592.841C263.191 597.268 258.384 606.642 255.382 609.993Z"/><defs><linearGradient id="gradient_9" gradientUnits="userSpaceOnUse" x1="434.8898" y1="478.39322" x2="230.39291" y2="567.04376"><stop offset="0" stop-color="#00266F"/><stop offset="1" stop-color="#0041A6"/></linearGradient></defs><path fill="url(#gradient_9)" d="M255.382 609.993C258.384 606.642 263.191 597.268 265.579 592.841C270.328 583.941 275.142 575.076 280.021 566.247C299.922 531.228 321.203 497.013 343.814 463.68C353.125 449.829 364.195 432.627 376.341 421.34C391.044 407.677 407.488 433.957 415.113 443.822C419.735 449.802 425.298 456.606 429.295 462.799C427.724 470.178 425.816 477.696 423.859 484.989C416.244 513.37 410.034 542.359 401.829 570.566C387.013 579.761 371.751 588.218 356.099 595.906C335.011 606.264 312.31 615.397 289.757 622.008C282.465 624.146 250.957 633.847 253.2 617.6C253.492 615.484 254.656 612.126 255.382 609.993Z"/><defs><linearGradient id="gradient_10" gradientUnits="userSpaceOnUse" x1="564.53571" y1="456.0751" x2="449.10886" y2="439.27798"><stop offset="0" stop-color="#001480"/><stop offset="1" stop-color="#0094EF"/></linearGradient></defs><path fill="url(#gradient_10)" d="M375.585 280.527C421.195 273.879 432.312 286.768 460.49 318.257L490.847 351.879L520.791 384.798C524.858 389.29 532.207 396.94 535.748 401.55C546.254 412.5 556.567 424.507 567.031 435.663C571.676 440.687 581.589 451.872 586.586 456.056L587.49 455.905L588.616 456.855C580.17 464.681 573.828 468.77 564.26 474.895C544.726 487.144 525.379 499.758 505.476 511.392C497.395 516.116 487.937 522.095 479.66 526.281C476.834 522.839 474.026 519.383 471.236 515.911C472.843 514.007 472.875 513.694 473.8 511.31L474.845 508.552C472.861 505.468 469.286 483.561 468.463 478.643C464.328 453.947 461.435 428.956 457.741 404.181C455.906 391.876 453.794 379.656 452.247 367.302C451.7 362.937 450.839 358.332 450.744 353.944C450.693 351.579 451.794 349.817 453.436 348.23C450.84 345.005 447.763 341.673 444.979 338.547C430.653 322.471 417.338 304.9 400.74 291.06C394.726 286.046 383.833 284.863 376.747 281.969C376.36 281.489 375.973 281.008 375.585 280.527Z"/><path fill="#00DEFA" d="M375.585 280.527C421.195 273.879 432.312 286.768 460.49 318.257L490.847 351.879L520.791 384.798C524.858 389.29 532.207 396.94 535.748 401.55C531.422 405.459 530.491 406.191 527.338 411.067C524.977 414.72 522.753 422.185 520.184 424.487C513.291 416.254 506.051 408.143 499.004 400.018C493.499 393.671 485.433 383.063 479.257 377.686C477.859 374.76 456.769 351.858 453.436 348.23C450.84 345.005 447.763 341.673 444.979 338.547C430.653 322.471 417.338 304.9 400.74 291.06C394.726 286.046 383.833 284.863 376.747 281.969C376.36 281.489 375.973 281.008 375.585 280.527Z"/><defs><linearGradient id="gradient_11" gradientUnits="userSpaceOnUse" x1="523.06396" y1="420.12231" x2="562.41052" y2="441.25287"><stop offset="0" stop-color="#00A7FF"/><stop offset="1" stop-color="#0058CD"/></linearGradient></defs><path fill="url(#gradient_11)" d="M535.748 401.55C546.254 412.5 556.567 424.507 567.031 435.663C571.676 440.687 581.589 451.872 586.586 456.056L587.49 455.905L588.616 456.855C580.17 464.681 573.828 468.77 564.26 474.895C561.374 470.534 557.3 466.064 553.786 462.116C550.94 459.774 542.914 450.583 540.376 447.696C533.585 440.012 526.855 432.275 520.184 424.487C522.753 422.185 524.977 414.72 527.338 411.067C530.491 406.191 531.422 405.459 535.748 401.55Z"/><defs><linearGradient id="gradient_12" gradientUnits="userSpaceOnUse" x1="582.45972" y1="464.00388" x2="556.98273" y2="450.13593"><stop offset="0" stop-color="#0025AF"/><stop offset="1" stop-color="#0059CD"/></linearGradient></defs><path fill="url(#gradient_12)" d="M567.031 435.663C571.676 440.687 581.589 451.872 586.586 456.056L587.49 455.905L588.616 456.855C580.17 464.681 573.828 468.77 564.26 474.895C561.374 470.534 557.3 466.064 553.786 462.116L554.391 462.039C554.085 460.795 553.036 459.544 553.774 458.139C557.525 451.001 560.344 442.945 565.121 436.454C565.121 436.453 566.863 435.733 567.031 435.663Z"/><path fill="#007BD2" d="M453.436 348.23C456.769 351.858 477.859 374.76 479.257 377.686L478.566 378.066C475.322 374.277 465.785 362.534 462.028 360.715L461.015 360.837C460.307 364.533 461.669 370.468 461.873 374.367C462.01 376.987 461.183 380.57 461.532 382.931C465.398 409.061 468.9 435.302 473.526 461.309C475.093 470.12 478.022 478.791 480.323 487.413L480.698 487.526C482.958 470.719 485.378 458.42 485.944 440.943L486.223 441.059C487.855 449.563 482.501 482.117 480.23 492.146C479.373 495.929 476.337 504.456 474.845 508.552C472.861 505.468 469.286 483.561 468.463 478.643C464.328 453.947 461.435 428.956 457.741 404.181C455.906 391.876 453.794 379.656 452.247 367.302C451.7 362.937 450.839 358.332 450.744 353.944C450.693 351.579 451.794 349.817 453.436 348.23Z"/><defs><linearGradient id="gradient_13" gradientUnits="userSpaceOnUse" x1="646.672" y1="469.46069" x2="680.65405" y2="337.32748"><stop offset="0" stop-color="#00086C"/><stop offset="1" stop-color="#008EDE"/></linearGradient></defs><path fill="url(#gradient_13)" d="M622.679 322.023C622.892 320.314 624.825 313.397 625.321 311.407C627.006 304.646 628.673 297.579 630.583 290.891C631.905 289.718 631.428 290.082 633.725 290.085C638.834 290.93 646.307 290.639 651.603 290.651L682.287 290.714C688.501 290.731 697.579 290.595 703.605 291.385C703.838 292.904 703.729 292.483 703.345 294.115C705.627 297.294 746.203 313.993 753.378 317.759C754.037 316.444 754.544 314.919 755.601 314.156C754.019 318.345 750.806 325.021 748.848 329.596C746.08 336.063 742.735 346.534 739.848 352.394L739.398 356.875C699.052 385.821 657.771 413.441 615.62 439.689C606.558 445.37 597.755 451.278 588.616 456.855L587.49 455.905C592.221 441.231 595.435 425.706 599.497 410.832C607.52 381.46 614.489 351.293 622.679 322.023Z"/><defs><linearGradient id="gradient_14" gradientUnits="userSpaceOnUse" x1="671.55774" y1="350.49115" x2="699.94489" y2="289.3494"><stop offset="0" stop-color="#0080D0"/><stop offset="1" stop-color="#01CFED"/></linearGradient></defs><path fill="url(#gradient_14)" d="M622.679 322.023C622.892 320.314 624.825 313.397 625.321 311.407C627.006 304.646 628.673 297.579 630.583 290.891C631.905 289.718 631.428 290.082 633.725 290.085C638.834 290.93 646.307 290.639 651.603 290.651L682.287 290.714C688.501 290.731 697.579 290.595 703.605 291.385C703.838 292.904 703.729 292.483 703.345 294.115C705.627 297.294 746.203 313.993 753.378 317.759C754.037 316.444 754.544 314.919 755.601 314.156C754.019 318.345 750.806 325.021 748.848 329.596C746.08 336.063 742.735 346.534 739.848 352.394C739.499 352.294 739.149 352.193 738.799 352.093C734.478 354.919 730.195 357.844 726.095 360.997C711.157 372.483 694.764 381.78 678.626 391.434C676.024 392.992 673.119 394.727 670.136 395.259C670.951 394.432 678.205 390.847 679.837 389.834C687.865 384.854 696.479 380.561 704.071 374.92C706.13 373.391 711.493 372.008 712.183 369.331C709.81 366.538 706.349 364.375 703.031 362.887C680.101 352.6 657.792 340.964 634.514 331.434C632.269 330.515 625.659 328.059 624.255 326.431C623.8 324.569 623.601 323.685 622.679 322.023Z"/><defs><linearGradient id="gradient_15" gradientUnits="userSpaceOnUse" x1="688.2757" y1="479.09354" x2="653.74371" y2="405.49771"><stop offset="0" stop-color="#00D4ED"/><stop offset="1" stop-color="#00FEFF" stop-opacity="0.98823529"/></linearGradient></defs><path fill="url(#gradient_15)" d="M510.515 530.144C511.815 529.039 520.823 523.814 523.129 522.422L551.62 505.065C579.423 487.806 607.043 470.255 634.476 452.414C682.836 421.338 730.701 388.654 778.767 357.089C796.042 345.745 813.688 332.281 831.08 321.598C829.232 325.874 827.548 329.83 825.406 333.982C821.144 334.776 817.507 342.02 815.26 345.603C787.494 384.217 759.332 419.553 724.743 452.514C717.95 458.987 708.666 468.625 701.455 474.119C694.334 477.969 694.2 473.23 691.793 467.016C693.256 464.835 694.267 463.442 695.34 461.004C725.529 433.447 757.968 398.109 785.141 367.445C788.112 364.775 793.888 357.515 796.422 354.296C792.804 356.88 789.762 359.641 786.489 362.632C780.847 364.949 760.324 381.599 754.497 386.091L705.989 423.026C687.96 436.578 669.542 449.773 651.345 463.107C642.071 469.904 632.333 476.171 623.025 482.962L613.978 489.065C589.233 505.396 564.991 523.407 539.634 539.068C536.899 540.757 523.252 549.662 521.462 550.24C517.835 550.953 515.306 553.801 511.531 552.107C508.461 548.927 510.533 545.445 506.034 543.331L505.108 544.394C505.102 542.356 504.799 539.138 504.693 536.936C508.159 534.3 508.592 534.076 510.515 530.144Z"/><defs><linearGradient id="gradient_16" gradientUnits="userSpaceOnUse" x1="716.57281" y1="331.42191" x2="765.31024" y2="281.9472"><stop offset="0" stop-color="#00B6E5"/><stop offset="1" stop-color="aqua" stop-opacity="0.98823529"/></linearGradient></defs><path fill="url(#gradient_16)" d="M633.725 290.085C666.784 289.329 700.731 290.428 733.861 289.971C745.72 289.807 764.959 290.621 776.365 289.743C772.475 303.413 766.993 328.474 762.351 340.6C755.103 346.234 747.016 351.728 739.398 356.875L739.848 352.394C742.735 346.534 746.08 336.063 748.848 329.596C750.806 325.021 754.019 318.345 755.601 314.156C754.544 314.919 754.037 316.444 753.378 317.759C746.203 313.993 705.627 297.294 703.345 294.115C703.729 292.483 703.838 292.904 703.605 291.385C697.579 290.595 688.501 290.731 682.287 290.714L651.603 290.651C646.307 290.639 638.834 290.93 633.725 290.085Z"/><defs><linearGradient id="gradient_17" gradientUnits="userSpaceOnUse" x1="832.22607" y1="313.19052" x2="844.63599" y2="282.15451"><stop offset="0" stop-color="#01C4FB"/><stop offset="1" stop-color="#04FBFF" stop-opacity="0.98823529"/></linearGradient></defs><path fill="url(#gradient_17)" d="M837.993 280.216C847.676 279.829 855.864 287.314 856.347 296.992C856.83 306.671 849.427 314.933 839.753 315.512C829.943 316.098 821.539 308.568 821.05 298.752C820.56 288.937 828.173 280.608 837.993 280.216Z"/><path fill="#D6FDFE" d="M837.995 286.029C849.365 286.517 852.385 296.723 841.01 302.332C829.894 300.515 824.48 289.408 837.995 286.029Z"/><path fill="#007BD2" d="M464.553 507.083C467.692 508.29 472.073 511.928 473.8 511.31C472.875 513.694 472.843 514.007 471.236 515.911C468.847 512.956 466.787 510.161 464.553 507.083Z"/><path fill="#007BD2" d="M796.422 354.296C793.888 357.515 788.112 364.775 785.141 367.445L783.795 366.995C784.893 365.512 785.575 364.24 786.489 362.632C789.762 359.641 792.804 356.88 796.422 354.296Z"/></svg>